# xmcd CD database file
#
# Track frame offsets:
#	150
#	14901
#	31556
#	50242
#	65721
#	81626
#	93875
#	109197
#	121877
#	139439
#	155792
#	176135
#	203217
#	217585
#
# Disc length: 3131 seconds
#
# Revision: 0
# Processed by: cddbd v1.5.2PL0 Copyright (c) Steve Scherf et al.
# Submitted via: CDex 1.51
#
DISCID=d10c390e
DTITLE=Gretchen Wilson - The Very Best of Gretchen Wilson
DYEAR=2012
DGENRE=Country
TTITLE0=Here For The Party
TTITLE1=Redneck Woman
TTITLE2=When I Think About Cheatin'
TTITLE3=Homewrecker
TTITLE4=All Jacked Up
TTITLE5=I Don't Feel Like Loving You Today
TTITLE6=Politically Uncorrect (featuring Merle Haggard)
TTITLE7=California Girls
TTITLE8=Come To Bed (featuring John Rich)
TTITLE9=One Of The Boys
TTITLE10=Barracuda (Live)
TTITLE11=Sunday Morning Coming Down
TTITLE12=Don't Do Me No Good
TTITLE13=If I Could Do It All Again
EXTD=YEAR: 2012
EXTT0=
EXTT1=
EXTT2=
EXTT3=
EXTT4=
EXTT5=
EXTT6=
EXTT7=
EXTT8=
EXTT9=
EXTT10=
EXTT11=
EXTT12=
EXTT13=
PLAYORDER=
